PathFileType	4	(X/Y/Z)	Run_500 01
DataRate	CameraRate	NumFrames	NumMarkers	Units	OrigDataRate	OrigDataStartFrame	OrigNumFrames
120	120	4	41	mm	120	150	128
Frame#	Time	RASI			LPSI			RPSI			RTH3			LTH1			LTH2			LTH3			RTB1			RTB2			RTB3			LTB1			LTB2			LTB3			RCAL			RTOE			RMT5			LCAL			LTOE			LMT5			LACR			RACR			CLAV			C7			RUA1			RUA2			RUA3			RLEL			LUA1			LUA2			LUA3			LLEL			LMEL			RFAsuperior			RFAradius			RFAulna			LFAsuperior			LFAradius			LFAulna			LASI			RTH1			RMEL			
		X1	Y1	Z1	X2	Y2	Z2	X3	Y3	Z3	X4	Y4	Z4	X5	Y5	Z5	X6	Y6	Z6	X7	Y7	Z7	X8	Y8	Z8	X9	Y9	Z9	X10	Y10	Z10	X11	Y11	Z11	X12	Y12	Z12	X13	Y13	Z13	X14	Y14	Z14	X15	Y15	Z15	X16	Y16	Z16	X17	Y17	Z17	X18	Y18	Z18	X19	Y19	Z19	X20	Y20	Z20	X21	Y21	Z21	X22	Y22	Z22	X23	Y23	Z23	X24	Y24	Z24	X25	Y25	Z25	X26	Y26	Z26	X27	Y27	Z27	X28	Y28	Z28	X29	Y29	Z29	X30	Y30	Z30	X31	Y31	Z31	X32	Y32	Z32	X33	Y33	Z33	X34	Y34	Z34	X35	Y35	Z35	X36	Y36	Z36	X37	Y37	Z37	X38	Y38	Z38	X39	Y39	Z39	X40	Y40	Z40	X41	Y41	Z41	

149	1.483333	1009.287382	1011.237339	-199.687959	859.622916	1039.895547	-378.898793	843.281489	1045.212824	-282.799204	1176.34754	688.318822	-201.748818	888.818878	816.591463	-491.916377	869.377403	704.671374	-461.731401	740.476363	653.595027	-439.958532	1231.058501	497.267461	-270.256028	1177.728752	455.159164	-201.57135	1162.285752	391.619997	-267.68641	636.701919	441.550464	-368.111567	550.917512	418.421628	-440.414347	518.09892	317.320513	-375.00104	996.881847	272.650225	-258.723799	1194.109426	203.794775	-294.966108	1177.049618	198.625037	-199.706985	369.0594	298.28334	-378.500512	445.713647	115.985602	-315.45835	413.636715	96.54555499999999	-397.24374	1037.863333	1462.928114	-489.543286	889.840477	1478.4088	-133.686566	1010.217779	1458.619263	-267.511346	905.108653	1513.071625	-347.843502	775.5812560000001	1400.663349	-96.204004	724.5927370000001	1422.933143	-148.051452	698.013464	1355.991671	-83.457285	631.412617	1318.25302	-78.920613	1014.252179	1335.388589	-566.781999	951.911614	1290.015091	-591.232614	1022.05424	1252.193635	-586.374197	992.80002	1176.413449	-626.949071	921.5558119999999	1164.639468	-573.508315	665.174847	1194.634855	-63.420016	689.759533	1077.129651	-101.61707	636.075711	1069.415792	-56.41834	1087.688143	1171.940883	-536.145519	1113.762989	1199.399508	-414.269369	1159.212691	1159.589838	-449.8175	1020.548183	984.660138	-426.838303	1007.31797	878.367452	-139.640193	621.32247	1302.415294	-160.219005	
150	1.491667	1011.59331	1013.059494	-199.212442	862.4137459999999	1044.829273	-379.095582	845.794173	1050.325899	-282.51055	1176.789802	688.867192	-202.800074	887.4994390000001	822.565432	-492.352707	865.380952	710.5647740000001	-462.899304	735.634946	662.577334	-439.248388	1242.141907	495.442633	-271.019439	1195.038429	448.044695	-201.766909	1184.669379	383.416172	-268.091467	624.4621959999999	453.541229	-366.75635	542.483979	430.575764	-441.359829	502.202759	333.158177	-375.357132	1032.258787	247.653002	-258.839355	1235.601632	200.388706	-297.307205	1219.764269	191.712852	-202.247765	355.917093	321.796612	-383.843234	416.980653	133.338301	-319.343004	385.622987	116.468189	-401.942541	1039.9907	1466.678895	-487.092721	886.815318	1481.072821	-134.940851	1009.478083	1461.11745	-266.304711	904.718984	1515.030156	-348.210797	771.835241	1405.135652	-97.974881	721.969319	1427.731264	-151.008266	693.684468	1362.150645	-85.431253	627.057203	1324.350969	-81.292903	1018.6602	1340.590371	-565.773052	956.444205	1296.231968	-591.901428	1026.544506	1257.619544	-586.612166	996.993992	1181.7905	-627.844342	924.364029	1170.04546	-576.105651	662.404235	1201.29571	-65.44843400000001	688.72378	1083.928361	-103.367575	635.211487	1075.486222	-58.196218	1089.218264	1178.800486	-534.099283	1111.976655	1208.031544	-411.95164	1158.392951	1167.503473	-445.497129	1022.357727	986.580527	-425.77301	1009.565986	881.182461	-140.898144	617.242454	1308.092472	-162.524967	
151	1.5	1013.188124	1013.08801	-198.928937	864.569557	1049.890417	-379.044826	847.716149	1054.86716	-281.766961	1176.308094	687.794226	-202.58668	886.769539	827.62062	-492.482584	863.574218	715.123596	-463.511478	733.789773	667.8177020000001	-439.361604	1251.539519	492.187778	-270.409868	1209.920677	440.508082	-201.252743	1205.689919	375.232626	-267.944769	613.85971	463.576933	-365.175061	535.824298	440.86919	-441.624091	486.206087	349.368328	-374.751822	1067.568874	224.158962	-259.519343	1274.810852	198.90389	-299.198189	1260.14858	186.555445	-204.439472	340.805153	346.128597	-386.980285	388.577386	153.489121	-322.297988	359.59311	139.595524	-406.470785	1041.810306	1469.526286	-485.13556	884.385038	1482.923104	-135.903956	1009.070301	1463.121943	-265.189465	904.590344	1516.562471	-348.481815	768.921319	1408.366002	-99.437411	719.911081	1431.015628	-153.524702	690.20347	1366.887473	-87.182863	623.575951	1329.046821	-83.31117999999999	1022.643274	1344.407872	-564.8678190000001	960.525317	1301.112352	-592.8587669999999	1030.598626	1261.754015	-587.212742	1000.394251	1186.075204	-628.648775	926.490364	1174.456865	-578.704199	660.437932	1206.586517	-66.947005	688.385916	1089.378622	-104.474553	635.086912	1080.294459	-59.337828	1089.958494	1184.291435	-532.44997	1109.794486	1215.056129	-410.150371	1156.88884	1173.695794	-441.797388	1023.216418	988.80664	-425.150697	1009.663544	880.121684	-142.165852	614.019756	1312.304348	-164.402382	
152	1.508333	1014.027058	1011.959361	-198.839376	865.8620069999999	1054.644787	-378.475887	849.072064	1058.31556	-280.68164	1174.2008	684.972706	-201.711077	886.726907	831.624432	-492.349355	864.1272	717.861194	-462.792134	734.760317	669.546994	-440.41453	1258.958517	487.533351	-268.877307	1221.662892	432.291461	-200.418869	1224.692135	367.125801	-267.493085	605.3622339999999	471.805692	-364.232084	529.494648	450.731938	-441.794327	470.843985	365.853467	-374.492758	1101.847854	202.360188	-260.533744	1310.586795	199.643797	-300.685701	1297.330207	183.691484	-206.281554	325.055509	371.365453	-388.541376	361.627915	176.089164	-324.681746	335.3568	164.82581	-410.468014	1043.154787	1471.588128	-483.851134	882.675497	1484.166861	-136.483993	1008.96735	1464.793362	-264.129187	904.684137	1517.79333	-348.489278	766.958659	1410.489596	-100.52769	718.565022	1432.80216	-155.568927	687.731168	1370.157346	-88.69962099999999	621.150341	1332.298372	-84.932393	1025.820082	1346.795319	-564.124768	963.799209	1304.467951	-594.012848	1033.908818	1264.625049	-588.1703199999999	1002.845883	1189.253737	-629.272881	927.892519	1177.807234	-581.005711	659.3707910000001	1210.406444	-67.93891499999999	688.784765	1093.297578	-105.001637	635.623121	1083.703227	-59.95337	1089.982443	1188.294136	-531.1716300000001	1107.401221	1220.15353	-408.726884	1154.911938	1178.055042	-438.825412	1023.483217	991.4086160000001	-424.897123	1008.093238	876.544211	-143.270558	611.917854	1315.007113	-165.824529	
